<?xml version="1.0" standalone="no"?>
<!DOCTYPE svg PUBLIC "-//W3C//DTD SVG 20010904//EN"
 "http://www.w3.org/TR/2001/REC-SVG-20010904/DTD/svg10.dtd">
<svg version="1.0" xmlns="http://www.w3.org/2000/svg"
 width="270.000000pt" height="270.000000pt" viewBox="0 0 270.000000 270.000000"
 preserveAspectRatio="xMidYMid meet">
<metadata>
Created by potrace 1.11, written by Peter Selinger 2001-2013
</metadata>
<g transform="translate(0.000000,270.000000) scale(0.100000,-0.100000)"
fill="#000000" stroke="none">
<path d="M1670 2616 c-14 -8 -32 -26 -39 -40 -12 -22 -11 -33 8 -89 30 -91 30
-94 -33 -107 -122 -25 -232 8 -363 107 l-34 26 13 -29 c7 -16 30 -64 50 -107
21 -43 38 -79 38 -81 0 -2 29 -64 63 -138 35 -73 72 -151 82 -173 101 -222
123 -261 151 -274 144 -66 323 -66 398 2 l26 22 -20 86 c-11 48 -22 102 -25
120 -3 19 -11 70 -19 114 -8 44 -16 109 -19 145 l-6 65 15 -55 c8 -30 16 -71
19 -90 10 -77 51 -204 71 -225 34 -33 153 -85 206 -89 74 -6 88 4 77 51 -5 21
-11 61 -15 88 -3 28 -7 61 -10 75 -11 64 -4 264 12 337 4 22 2 23 -47 20 -148
-10 -264 47 -369 179 -14 18 -41 41 -60 52 -42 24 -134 28 -170 8z"/>
<path d="M1034 2526 c-17 -8 -41 -26 -53 -42 -41 -52 -29 -94 91 -339 60 -121
112 -227 117 -235 10 -19 128 -253 226 -450 60 -121 87 -165 123 -198 44 -41
45 -42 12 -24 -64 37 -151 54 -270 53 -254 0 -485 -127 -603 -332 -106 -184
-81 -426 67 -633 71 -100 195 -195 291 -224 95 -28 127 -32 255 -28 156 3 250
28 359 94 131 79 237 219 267 355 1 4 2 8 4 10 13 16 19 238 7 299 -10 52 -44
136 -147 353 -15 33 -69 148 -118 255 -49 107 -107 231 -127 275 -20 44 -77
166 -125 270 -135 293 -169 365 -203 433 -31 63 -76 112 -102 112 -7 0 -19 2
-27 5 -7 2 -27 -2 -44 -9z"/>
<path d="M884 2256 c-137 -64 -298 -200 -391 -331 -225 -318 -253 -745 -69
-1085 29 -54 84 -140 90 -140 1 0 3 15 4 33 1 17 4 42 6 54 19 92 18 108 -13
173 -197 420 -6 962 414 1172 33 17 62 32 64 34 5 4 -42 114 -49 114 -3 0 -28
-11 -56 -24z"/>
<path d="M2150 1774 c0 -1 13 -28 29 -60 27 -56 63 -163 77 -229 10 -53 12
-240 3 -291 -5 -27 -11 -60 -14 -74 -19 -109 -123 -309 -197 -383 -10 -10 -18
-21 -19 -25 -2 -22 -6 -182 -4 -182 1 0 25 21 52 48 138 130 247 317 290 497
8 33 17 69 19 80 11 44 13 222 3 298 -16 137 -61 277 -88 277 -9 0 -46 11 -83
24 -38 12 -68 22 -68 20z"/>
</g>
</svg>
